<?xml version="1.0" encoding="UTF-8"?>
<svg data-bbox="0 0 129.3 50.4" viewBox="0 0 129.3 50.4" xmlns="http://www.w3.org/2000/svg" data-type="ugc">
    <g>
        <path d="M122.3 0H0v50.4h122.3V0zm-1.2 46.8c0 1.3-1 2.3-2.3 2.3-1.3 0-2.3-1-2.3-2.3s1-2.3 2.3-2.3c1.2-.1 2.3 1 2.3 2.3zM11.4 45.2c.8 0 1.5.7 1.5 1.5s-.7 1.5-1.5 1.5-1.5-.7-1.5-1.5.7-1.5 1.5-1.5zm7.1 0c.8 0 1.5.7 1.5 1.5s-.7 1.5-1.5 1.5-1.5-.7-1.5-1.5.7-1.5 1.5-1.5zm7.1 0c.8 0 1.5.7 1.5 1.5s-.7 1.5-1.5 1.5-1.5-.7-1.5-1.5.7-1.5 1.5-1.5zm7.1 0c.8 0 1.5.7 1.5 1.5s-.7 1.5-1.5 1.5-1.5-.7-1.5-1.5.7-1.5 1.5-1.5zm7.1 0c.8 0 1.5.7 1.5 1.5s-.7 1.5-1.5 1.5-1.5-.7-1.5-1.5c.1-.8.7-1.5 1.5-1.5zm7.1 0c.8 0 1.5.7 1.5 1.5s-.7 1.5-1.5 1.5-1.5-.7-1.5-1.5c.1-.8.7-1.5 1.5-1.5zm7.2 0c.8 0 1.5.7 1.5 1.5s-.7 1.5-1.5 1.5-1.5-.7-1.5-1.5.6-1.5 1.5-1.5zm7.1 0c.8 0 1.5.7 1.5 1.5s-.7 1.5-1.5 1.5-1.5-.7-1.5-1.5.7-1.5 1.5-1.5zm7.1 0c.8 0 1.5.7 1.5 1.5s-.7 1.5-1.5 1.5-1.5-.7-1.5-1.5.7-1.5 1.5-1.5zm7.1 0c.8 0 1.5.7 1.5 1.5s-.7 1.5-1.5 1.5-1.5-.7-1.5-1.5.7-1.5 1.5-1.5zm7.1 0c.8 0 1.5.7 1.5 1.5s-.7 1.5-1.5 1.5-1.5-.7-1.5-1.5c.1-.8.7-1.5 1.5-1.5zm7.1 0c.8 0 1.5.7 1.5 1.5s-.7 1.5-1.5 1.5-1.5-.7-1.5-1.5c.1-.8.7-1.5 1.5-1.5zm7.2 0c.8 0 1.5.7 1.5 1.5s-.7 1.5-1.5 1.5-1.5-.7-1.5-1.5.6-1.5 1.5-1.5zm7.1 0c.8 0 1.5.7 1.5 1.5s-.7 1.5-1.5 1.5-1.5-.7-1.5-1.5.7-1.5 1.5-1.5zm7.1 0c.8 0 1.5.7 1.5 1.5s-.7 1.5-1.5 1.5-1.5-.7-1.5-1.5.7-1.5 1.5-1.5zM89.3 26.4l-.1-.2v-1.4l.1-.2.1-.2.1-.2.1-.2.3-.3.2-.2.2-.1.2-.1.2-.1.2-.1.2-.1.2-.1h1.2l.2.1.2.1.1-.1.2.1.2.1.2.1.2.2.2.2.1.2.1.2.1.2.1.2.1.2v1.4l-.1.2-.1.2-.3.2-.1.2-.1.2-.2.2-.2.1-.2.1-.2.1-.2.1-.2.1-.2.1-.1.1h-1l-.3-.1-.2-.1-.2-.1-.2-.1-.2-.1-.2-.1-.2-.1-.2-.2-.1-.2-.1-.2-.1-.2v-.1zm31.8-22.8c0 1.3-1 2.3-2.3 2.3-1.3 0-2.3-1-2.3-2.3s1-2.3 2.3-2.3c1.2 0 2.3 1 2.3 2.3zM11.4 5.2c-.8 0-1.5-.7-1.5-1.5s.7-1.5 1.5-1.5 1.5.7 1.5 1.5c-.1.8-.7 1.5-1.5 1.5zm7.1 0c-.8 0-1.5-.7-1.5-1.5s.7-1.5 1.5-1.5 1.5.7 1.5 1.5c-.1.8-.7 1.5-1.5 1.5zm7.1 0c-.8 0-1.5-.7-1.5-1.5s.7-1.5 1.5-1.5 1.5.7 1.5 1.5-.7 1.5-1.5 1.5zm7.1 0c-.8 0-1.5-.7-1.5-1.5s.7-1.5 1.5-1.5 1.5.7 1.5 1.5-.7 1.5-1.5 1.5zm7.1 0c-.8 0-1.5-.7-1.5-1.5s.7-1.5 1.5-1.5 1.5.7 1.5 1.5-.7 1.5-1.5 1.5zm7.1 0c-.8 0-1.5-.7-1.5-1.5s.7-1.5 1.5-1.5 1.5.7 1.5 1.5-.6 1.5-1.5 1.5zm7.2 0c-.8 0-1.5-.7-1.5-1.5s.7-1.5 1.5-1.5 1.5.7 1.5 1.5c-.1.8-.7 1.5-1.5 1.5zm7.1 0c-.8 0-1.5-.7-1.5-1.5s.7-1.5 1.5-1.5 1.5.7 1.5 1.5c-.1.8-.7 1.5-1.5 1.5zm7.1 0c-.8 0-1.5-.7-1.5-1.5s.7-1.5 1.5-1.5 1.5.7 1.5 1.5-.7 1.5-1.5 1.5zm7.1 0c-.8 0-1.5-.7-1.5-1.5s.7-1.5 1.5-1.5 1.5.7 1.5 1.5-.7 1.5-1.5 1.5zm7.1 0c-.8 0-1.5-.7-1.5-1.5s.7-1.5 1.5-1.5 1.5.7 1.5 1.5-.7 1.5-1.5 1.5zm7.1 0c-.8 0-1.5-.7-1.5-1.5s.7-1.5 1.5-1.5 1.5.7 1.5 1.5-.7 1.5-1.5 1.5zm7.1 0c-.8 0-1.5-.7-1.5-1.5s.7-1.5 1.5-1.5 1.5.7 1.5 1.5-.6 1.5-1.5 1.5zm7.2 0c-.8 0-1.5-.7-1.5-1.5s.7-1.5 1.5-1.5 1.5.7 1.5 1.5c-.1.8-.7 1.5-1.5 1.5zm7.1 0c-.8 0-1.5-.7-1.5-1.5s.7-1.5 1.5-1.5 1.5.7 1.5 1.5c-.1.8-.7 1.5-1.5 1.5zM1.3 3.6c0-1.3 1-2.3 2.3-2.3 1.3 0 2.3 1 2.3 2.3 0 1.3-1 2.3-2.3 2.3-1.3 0-2.3-1-2.3-2.3zm0 43.2c0-1.3 1-2.3 2.3-2.3 1.3 0 2.3 1 2.3 2.3 0 1.3-1 2.3-2.3 2.3-1.3 0-2.3-1-2.3-2.3z" fill="#017481"/>
        <path d="M113.1 28.7v1.1c0 .1-.1.2-.2.2h-4.1c-.1 0-.2-.1-.2-.2v-1.1c0-.1.1-.2.2-.2h4.1c.2 0 .2.1.2.2z" fill="#c2c5c6"/>
        <path d="M113.1 26.5v1.1c0 .1-.1.2-.2.2h-4.1c-.1 0-.2-.1-.2-.2v-1.1c0-.1.1-.2.2-.2h4.1c.2.1.2.1.2.2z" fill="#c2c5c6"/>
        <path d="M113.1 24.4v1.1c0 .1-.1.2-.2.2h-4.1c-.1 0-.2-.1-.2-.2v-1.1c0-.1.1-.2.2-.2h4.1c.2 0 .2.1.2.2z" fill="#c2c5c6"/>
        <path d="M113.1 22.3v1.1c0 .1-.1.2-.2.2h-4.1c-.1 0-.2-.1-.2-.2v-1.1c0-.1.1-.2.2-.2h4.1c.2 0 .2.1.2.2z" fill="#c2c5c6"/>
        <path d="M113.1 20.2v1.1c0 .1-.1.2-.2.2h-4.1c-.1 0-.2-.1-.2-.2v-1.1c0-.1.1-.2.2-.2h4.1c.2 0 .2.1.2.2z" fill="#c2c5c6"/>
        <path fill="#9da0a1" d="M129.3 13.3v23.8H111V13.3h18.3z"/>
        <path fill="#8b8f90" d="M112.8 13.3H111v23.8h1.8V13.3z"/>
        <path fill="#8b8f90" d="M116.5 13.3h-1.9v23.8h1.9V13.3z"/>
        <path fill="#8b8f90" d="M120.1 13.3h-1.8v23.8h1.8V13.3z"/>
        <path fill="#8b8f90" d="M123.8 13.3h-1.9v23.8h1.9V13.3z"/>
        <path fill="#8b8f90" d="M127.4 13.3h-1.8v23.8h1.8V13.3z"/>
        <path fill="#80b9c0" d="M82.9 19.4v1H72.7v-1h10.2z"/>
        <path fill="#80b9c0" d="M81.3 21.5v1.9h-1v-1.9h1z"/>
        <path fill="#80b9c0" d="M79.3 21.5v1.9h-1v-1.9h1z"/>
        <path fill="#80b9c0" d="M77.4 21.5v1.9h-1v-1.9h1z"/>
        <path fill="#80b9c0" d="M75.4 21.5v1.9h-1v-1.9h1z"/>
        <path fill="#80b9c0" d="M82.9 17.5v1H72.7v-1h10.2z"/>
        <path fill="#80b9c0" d="M82.9 15.6v1H72.7v-1h10.2z"/>
        <path fill="#80b9c0" d="M82.9 13.8v1H72.7v-1h10.2z"/>
        <path fill="#80b9c0" d="M82.9 11.9v1H72.7v-1h10.2z"/>
        <path fill="#80b9c0" d="M82.9 10v1H72.7v-1h10.2z"/>
        <path d="M73.7 22.5h8.2V8.3h-8.2v14.2z"/>
        <path fill="#8b8f90" d="M119.9 7.5V10h-6.3V7.5h6.3z"/>
        <path d="M114.9 8.8c0-1.1.9-1.9 1.9-1.9 1.1 0 1.9.9 1.9 1.9 0 1.1-.9 1.9-1.9 1.9-1.1 0-1.9-.9-1.9-1.9z" fill="#eaa800"/>
        <path fill="#8b8f90" d="M119.9 40.3v2.5h-6.3v-2.5h6.3z"/>
        <path d="M114.9 41.6c0-1.1.9-1.9 1.9-1.9 1.1 0 1.9.9 1.9 1.9 0 1.1-.9 1.9-1.9 1.9-1.1 0-1.9-.8-1.9-1.9z" fill="#1a9f85"/>
        <path fill="#8b8f90" d="M85.7 35.1v4.5h-2.2v-4.5h2.2z"/>
        <path fill="#8b8f90" d="M80 35.1v4.5h-2.2v-4.5H80z"/>
        <path d="M79.8 35.6c-.5 0-.9.4-.9.9v1.7c0 .5.4.9.9.9h.2v-3.5h-.2z" fill="#8a7867"/>
        <path d="M83.8 39.1c.5 0 .9-.4.9-.9v-1.7c0-.5-.4-.9-.9-.9h-.2v3.5h.2z" fill="#8a7867"/>
        <path d="M83.6 35.6v3.5h-3.5v-3.5h3.5z"/>
        <path fill="#8b8f90" d="M106.2 16.3v4.5H104v-4.5h2.2z"/>
        <path fill="#8b8f90" d="M100.5 16.3v4.5h-2.2v-4.5h2.2z"/>
        <path d="M100.3 16.8c-.5 0-.9.4-.9.9v1.7c0 .5.4.9.9.9h.2v-3.5h-.2z" fill="#8a7867"/>
        <path d="M104.3 20.3c.5 0 .9-.4.9-.9v-1.7c0-.5-.4-.9-.9-.9h-.3v3.5h.3z" fill="#8a7867"/>
        <path d="M104.1 16.8v3.5h-3.5v-3.5h3.5z"/>
        <path fill="#017481" d="M104.9 24.3v4.4h-6.6v-4.4h6.6z"/>
        <path d="M104.9 24.3v4.4h-6.6v-4.4h6.6z"/>
        <path fill="#8b8f90" d="M104.3 21.8V25h-1.1v-3.2h1.1z"/>
        <path fill="#8b8f90" d="M100 21.8V25h-1.1v-3.2h1.1z"/>
        <path fill="#8b8f90" d="M104.3 27.5v3.2h-1.1v-3.2h1.1z"/>
        <path fill="#8b8f90" d="M100 27.5v3.2h-1.1v-3.2h1.1z"/>
        <path d="M78.7 29.8h-1.8c-.5 0-.9.4-.9.9s.4.9.9.9h1.8c.5 0 .9-.4.9-.9s-.4-.9-.9-.9z" fill="#8b8f90"/>
        <path fill="#8a7867" d="M78.4 29.8v1.8h-1.3v-1.8h1.3z"/>
        <path fill="#8a7867" d="M78.4 29.8v1.8h-1.3v-1.8h1.3z"/>
        <path fill="#8a7867" d="M78.4 29.8v1.8h-1.3v-1.8h1.3z"/>
        <path fill="#8a7867" d="M78.4 29.8v1.8h-1.3v-1.8h1.3z"/>
        <path d="M75.1 33.5h-1.8c-.5 0-.9.4-.9.9s.4.9.9.9h1.8c.5 0 .9-.4.9-.9s-.4-.9-.9-.9z" fill="#8b8f90"/>
        <path fill="#8a7867" d="M74.8 33.5v1.8h-1.3v-1.8h1.3z"/>
        <path fill="#8a7867" d="M74.8 33.5v1.8h-1.3v-1.8h1.3z"/>
        <path fill="#8a7867" d="M74.8 33.5v1.8h-1.3v-1.8h1.3z"/>
        <path fill="#8a7867" d="M74.8 33.5v1.8h-1.3v-1.8h1.3z"/>
        <path d="M71.9 37.1h-1.8c-.5 0-.9.4-.9.9s.4.9.9.9h1.8c.5 0 .9-.4.9-.9s-.4-.9-.9-.9z" fill="#8b8f90"/>
        <path fill="#8a7867" d="M71.6 37.1v1.8h-1.3v-1.8h1.3z"/>
        <path fill="#8a7867" d="M71.6 37.1v1.8h-1.3v-1.8h1.3z"/>
        <path fill="#8a7867" d="M71.6 37.1v1.8h-1.3v-1.8h1.3z"/>
        <path fill="#8a7867" d="M71.6 37.1v1.8h-1.3v-1.8h1.3z"/>
        <path d="M66.4 41h-1.8c-.5 0-.9.4-.9.9s.4.9.9.9h1.8c.5 0 .9-.4.9-.9s-.4-.9-.9-.9z" fill="#8b8f90"/>
        <path fill="#8a7867" d="M66.1 41v1.8h-1.3V41h1.3z"/>
        <path fill="#8a7867" d="M66.1 41v1.8h-1.3V41h1.3z"/>
        <path fill="#8a7867" d="M66.1 41v1.8h-1.3V41h1.3z"/>
        <path fill="#8a7867" d="M66.1 41v1.8h-1.3V41h1.3z"/>
        <path d="M75.7 24.8h-1.8c-.5 0-.9.4-.9.9s.4.9.9.9h1.8c.5 0 .9-.4.9-.9.1-.5-.3-.9-.9-.9z" fill="#8b8f90"/>
        <path fill="#8a7867" d="M75.5 24.8v1.8h-1.3v-1.8h1.3z"/>
        <path fill="#8a7867" d="M75.5 24.8v1.8h-1.3v-1.8h1.3z"/>
        <path fill="#8a7867" d="M75.5 24.8v1.8h-1.3v-1.8h1.3z"/>
        <path fill="#8a7867" d="M75.5 24.8v1.8h-1.3v-1.8h1.3z"/>
        <path d="M60.1 41h-1.8c-.5 0-.9.4-.9.9s.4.9.9.9h1.8c.5 0 .9-.4.9-.9s-.4-.9-.9-.9z" fill="#8b8f90"/>
        <path fill="#8a7867" d="M59.8 41v1.8h-1.3V41h1.3z"/>
        <path fill="#8a7867" d="M59.8 41v1.8h-1.3V41h1.3z"/>
        <path fill="#8a7867" d="M59.8 41v1.8h-1.3V41h1.3z"/>
        <path fill="#8a7867" d="M59.8 41v1.8h-1.3V41h1.3z"/>
        <path d="M107.9 41.2h-1.8c-.5 0-.9.4-.9.9s.4.9.9.9h1.8c.5 0 .9-.4.9-.9s-.4-.9-.9-.9z" fill="#8b8f90"/>
        <path fill="#8a7867" d="M107.6 41.2V43h-1.3v-1.8h1.3z"/>
        <path fill="#8a7867" d="M107.6 41.2V43h-1.3v-1.8h1.3z"/>
        <path fill="#8a7867" d="M107.6 41.2V43h-1.3v-1.8h1.3z"/>
        <path fill="#8a7867" d="M107.6 41.2V43h-1.3v-1.8h1.3z"/>
        <path d="M103.5 13.8h-1.8c-.5 0-.9.4-.9.9s.4.9.9.9h1.8c.5 0 .9-.4.9-.9s-.4-.9-.9-.9z" fill="#8b8f90"/>
        <path fill="#8a7867" d="M103.2 13.8v1.8h-1.3v-1.8h1.3z"/>
        <path fill="#8a7867" d="M103.2 13.8v1.8h-1.3v-1.8h1.3z"/>
        <path fill="#8a7867" d="M103.2 13.8v1.8h-1.3v-1.8h1.3z"/>
        <path fill="#8a7867" d="M103.2 13.8v1.8h-1.3v-1.8h1.3z"/>
        <path d="M109.5 8.1h-1.8c-.5 0-.9.4-.9.9s.4.9.9.9h1.8c.5 0 .9-.4.9-.9s-.4-.9-.9-.9z" fill="#8b8f90"/>
        <path fill="#8a7867" d="M109.2 8.1v1.8h-1.3V8.1h1.3z"/>
        <path fill="#8a7867" d="M109.2 8.1v1.8h-1.3V8.1h1.3z"/>
        <path fill="#8a7867" d="M109.2 8.1v1.8h-1.3V8.1h1.3z"/>
        <path fill="#8a7867" d="M109.2 8.1v1.8h-1.3V8.1h1.3z"/>
        <path d="M76.4 41.2h-1.8c-.5 0-.9.4-.9.9s.4.9.9.9h1.8c.5 0 .9-.4.9-.9s-.4-.9-.9-.9z" fill="#8b8f90"/>
        <path fill="#8a7867" d="M76.1 41.2V43h-1.3v-1.8h1.3z"/>
        <path fill="#8a7867" d="M76.1 41.2V43h-1.3v-1.8h1.3z"/>
        <path fill="#8a7867" d="M76.1 41.2V43h-1.3v-1.8h1.3z"/>
        <path fill="#8a7867" d="M76.1 41.2V43h-1.3v-1.8h1.3z"/>
        <path d="M91.3 34.3h-1.8c-.5 0-.9.4-.9.9s.4.9.9.9h1.8c.5 0 .9-.4.9-.9.1-.5-.3-.9-.9-.9z" fill="#8b8f90"/>
        <path fill="#8a7867" d="M91.1 34.3v1.8h-1.3v-1.8h1.3z"/>
        <path fill="#8a7867" d="M91.1 34.3v1.8h-1.3v-1.8h1.3z"/>
        <path fill="#8a7867" d="M91.1 34.3v1.8h-1.3v-1.8h1.3z"/>
        <path fill="#8a7867" d="M91.1 34.3v1.8h-1.3v-1.8h1.3z"/>
        <path d="M91.3 37.5h-1.8c-.5 0-.9.4-.9.9s.4.9.9.9h1.8c.5 0 .9-.4.9-.9.1-.5-.3-.9-.9-.9z" fill="#8b8f90"/>
        <path fill="#8a7867" d="M91.1 37.5v1.8h-1.3v-1.8h1.3z"/>
        <path fill="#8a7867" d="M91.1 37.5v1.8h-1.3v-1.8h1.3z"/>
        <path fill="#8a7867" d="M91.1 37.5v1.8h-1.3v-1.8h1.3z"/>
        <path fill="#8a7867" d="M91.1 37.5v1.8h-1.3v-1.8h1.3z"/>
        <path fill="#8a7867" d="M83.9 29.5v4.2h-2.1v-4.2h2.1z"/>
        <path fill="#9da0a1" d="M83.9 33.4v.2h-2.1v-.2h2.1z"/>
        <path fill="#9da0a1" d="M83.9 29.5v.2h-2.1v-.2h2.1z"/>
        <path fill="#017481" d="M103.5 35.6v3.5H96v-3.5h7.5z"/>
        <path d="M103.5 35.6v3.5H96v-3.5h7.5z"/>
        <path fill="#8b8f90" d="M105.7 36.8v1h-2.8v-1h2.8z"/>
        <path fill="#8b8f90" d="M97.1 36.8v1h-2.8v-1h2.8z"/>
        <path fill="#8b8f90" d="M71 13.5v2.2h-4.5v-2.2H71z"/>
        <path fill="#8b8f90" d="M71 19.3v2.2h-4.5v-2.2H71z"/>
        <path d="M67 19.5c0 .5.4.9.9.9h1.7c.5 0 .9-.4.9-.9v-.2H67v.2z" fill="#8a7867"/>
        <path d="M70.5 15.5c0-.5-.4-.9-.9-.9h-1.7c-.5 0-.9.4-.9.9v.2h3.5v-.2z" fill="#8a7867"/>
        <path d="M70.5 15.8v3.5H67v-3.5h3.5z"/>
        <path d="M10.7 7.3H8.9c-.6 0-.9.4-.9.9s.4.9.9.9h1.8c.5 0 .9-.4.9-.9s-.4-.9-.9-.9z" fill="#8b8f90"/>
        <path fill="#8a7867" d="M10.4 7.3v1.8H9.1V7.3h1.3z"/>
        <path fill="#8a7867" d="M10.4 7.3v1.8H9.1V7.3h1.3z"/>
        <path fill="#8a7867" d="M10.4 7.3v1.8H9.1V7.3h1.3z"/>
        <path fill="#8a7867" d="M10.4 7.3v1.8H9.1V7.3h1.3z"/>
        <path d="M4.7 7.3H2.9c-.5 0-.9.4-.9.9s.4.9.9.9h1.8c.5 0 .9-.4.9-.9s-.4-.9-.9-.9z" fill="#8b8f90"/>
        <path fill="#8a7867" d="M4.4 7.3v1.8H3.1V7.3h1.3z"/>
        <path fill="#8a7867" d="M4.4 7.3v1.8H3.1V7.3h1.3z"/>
        <path fill="#8a7867" d="M4.4 7.3v1.8H3.1V7.3h1.3z"/>
        <path fill="#8a7867" d="M4.4 7.3v1.8H3.1V7.3h1.3z"/>
        <path d="M47.1 28.8h-1.8c-.5 0-.9.4-.9.9s.4.9.9.9h1.8c.5 0 .9-.4.9-.9s-.4-.9-.9-.9z" fill="#8b8f90"/>
        <path fill="#8a7867" d="M46.8 28.8v1.8h-1.3v-1.8h1.3z"/>
        <path fill="#8a7867" d="M46.8 28.8v1.8h-1.3v-1.8h1.3z"/>
        <path fill="#8a7867" d="M46.8 28.8v1.8h-1.3v-1.8h1.3z"/>
        <path fill="#8a7867" d="M46.8 28.8v1.8h-1.3v-1.8h1.3z"/>
        <path d="M47.1 38.7h-1.8c-.5 0-.9.4-.9.9s.4.9.9.9h1.8c.5 0 .9-.4.9-.9s-.4-.9-.9-.9z" fill="#8b8f90"/>
        <path fill="#8a7867" d="M46.8 38.7v1.8h-1.3v-1.8h1.3z"/>
        <path fill="#8a7867" d="M46.8 38.7v1.8h-1.3v-1.8h1.3z"/>
        <path fill="#8a7867" d="M46.8 38.7v1.8h-1.3v-1.8h1.3z"/>
        <path fill="#8a7867" d="M46.8 38.7v1.8h-1.3v-1.8h1.3z"/>
        <path d="M21.6 40.8h-1.8c-.5 0-.9.4-.9.9s.4.9.9.9h1.8c.5 0 .9-.4.9-.9 0-.4-.4-.9-.9-.9z" fill="#8b8f90"/>
        <path fill="#8a7867" d="M21.3 40.8v1.8H20v-1.8h1.3z"/>
        <path fill="#8a7867" d="M21.3 40.8v1.8H20v-1.8h1.3z"/>
        <path fill="#8a7867" d="M21.3 40.8v1.8H20v-1.8h1.3z"/>
        <path fill="#8a7867" d="M21.3 40.8v1.8H20v-1.8h1.3z"/>
        <path d="M86.6 11.2V13c0 .5.4.9.9.9s.9-.4.9-.9v-1.8c0-.5-.4-.9-.9-.9s-.9.4-.9.9z" fill="#8b8f90"/>
        <path fill="#8a7867" d="M88.4 11.4v1.3h-1.8v-1.3h1.8z"/>
        <path fill="#8a7867" d="M88.4 11.4v1.3h-1.8v-1.3h1.8z"/>
        <path fill="#8a7867" d="M88.4 11.4v1.3h-1.8v-1.3h1.8z"/>
        <path fill="#8a7867" d="M88.4 11.4v1.3h-1.8v-1.3h1.8z"/>
        <path d="M68.3 24.8v1.8c0 .5.4.9.9.9s.9-.4.9-.9v-1.8c0-.5-.4-.9-.9-.9s-.9.4-.9.9z" fill="#8b8f90"/>
        <path fill="#8a7867" d="M70.1 25.1v1.3h-1.8v-1.3h1.8z"/>
        <path fill="#8a7867" d="M70.1 25.1v1.3h-1.8v-1.3h1.8z"/>
        <path fill="#8a7867" d="M70.1 25.1v1.3h-1.8v-1.3h1.8z"/>
        <path fill="#8a7867" d="M70.1 25.1v1.3h-1.8v-1.3h1.8z"/>
        <path d="M51 35.4v1.8c0 .5.4.9.9.9s.9-.4.9-.9v-1.8c0-.5-.4-.9-.9-.9s-.9.4-.9.9z" fill="#8b8f90"/>
        <path fill="#8a7867" d="M52.8 35.6v1.3H51v-1.3h1.8z"/>
        <path fill="#8a7867" d="M52.8 35.6v1.3H51v-1.3h1.8z"/>
        <path fill="#8a7867" d="M52.8 35.6v1.3H51v-1.3h1.8z"/>
        <path fill="#8a7867" d="M52.8 35.6v1.3H51v-1.3h1.8z"/>
        <path fill="#8a7867" d="M86 9.8V14h-2.1V9.8H86z"/>
        <path fill="#9da0a1" d="M86 13.7v.2h-2.1v-.2H86z"/>
        <path fill="#9da0a1" d="M86 9.8v.2h-2.1v-.2H86z"/>
        <path fill="#8a7867" d="M30.4 7.2v2.1h-4.2V7.2h4.2z"/>
        <path fill="#9da0a1" d="M30.3 7.2v2.1h-.2V7.2h.2z"/>
        <path fill="#9da0a1" d="M26.4 7.2v2.1h-.2V7.2h.2z"/>
        <path fill="#8a7867" d="M106.4 10.3v3.2h-1.6v-3.2h1.6z"/>
        <path fill="#9da0a1" d="M106.4 13.4v.2h-1.6v-.2h1.6z"/>
        <path fill="#9da0a1" d="M106.4 10.3v.2h-1.6v-.2h1.6z"/>
        <path fill="#8a7867" d="M64 13.5v1.6h-3.2v-1.6H64z"/>
        <path fill="#9da0a1" d="M64 13.5v1.6h-.2v-1.6h.2z"/>
        <path fill="#9da0a1" d="M61 13.5v1.6h-.2v-1.6h.2z"/>
        <path fill="#8a7867" d="M64 16.4V18h-3.2v-1.6H64z"/>
        <path fill="#9da0a1" d="M64 16.4V18h-.2v-1.6h.2z"/>
        <path fill="#9da0a1" d="M61 16.4V18h-.2v-1.6h.2z"/>
        <path fill="#8a7867" d="M58.4 18.6v1.6h-3.2v-1.6h3.2z"/>
        <path fill="#9da0a1" d="M58.5 18.6v1.6h-.2v-1.6h.2z"/>
        <path fill="#9da0a1" d="M55.4 18.6v1.6h-.2v-1.6h.2z"/>
        <path d="M102.4 7.3v5.9h-9.1V7.3h9.1z"/>
        <path d="M65.7 29.5v8.6h-9.9v-8.6h9.9z"/>
        <path fill="none" d="m91.5 22.2-.2.1H91l-.2.1-.3.1-.2.1-.2.1-.2.2-.2.1-.2.2-.2.2-.1.2-.2.2-.1.2-.1.3-.1.2v.3l-.1.2v.5l.1.3v.3l.1.2.1.2.1.3.1.2.1.2.2.2.2.2.2.2.2.1.2.2.2.1.2.1.3.1h.2l.3.1h.8l.2-.1h.3l.2-.1.2-.1.3-.1.2-.2.2-.1.2-.2.2-.2.1-.2.2-.2.1-.2.1-.3.1-.2v-.2l.1-.3v-1l-.1-.3-.1-.2-.1-.3-.1-.2-.1-.2-.2-.2-.1-.2-.2-.2-.2-.1-.2-.2-.3-.1-.2-.1-.2-.1-.3-.1h-.2l-.3-.1h-.5z"/>
        <path fill="#8b8f90" d="M94.1 18.7v1.7h-4.5v-1.7h4.5z"/>
        <path fill="#8b8f90" d="M94.1 30v1.7h-4.5V30h4.5z"/>
        <path d="M95.5 19.8h-7.3v10.6h7.3V19.8zM91.7 28h-.4l-.3-.1-.2-.1-.2-.1-.2-.1-.2-.1-.2-.1-.2-.1-.2-.2-.1-.2-.1-.2-.1-.2-.1-.2-.1-.2.1-.1v-1.2l.1-.2.1-.2.1-.2.1-.2.3-.3.2-.2.2-.1.2-.1.2-.1.2-.1.2-.1.2-.1h1.2l.2.1.2.1.1-.1.2.1.2.1.2.1.2.2.2.2.1.2.1.2.1.2.1.2.1.2v1.4l-.1.2-.1.2-.3.2-.1.2-.1.2-.2.2-.2.1-.2.1-.2.1-.2.1-.2.1-.2.1-.1.1h-.6z" fill="#c2c5c6"/>
        <path fill="#f7f9f9" d="M91.9 28h-.7l-.2-.1-.2-.1h-.2l-.2-.1-.2-.2-.1-.1-.2-.1-.2-.2-.1-.2-.1-.2-.1-.1-.1-.2-.1-.2V26l-.1-.3v-.6l.1-.2v-.2l.1-.3v-.2l.1-.1.2-.2.2-.4.2-.1.2-.2.1-.1.2-.1.2-.1.2-.1h.2l.2-.1h.9l.2.1h.2l.2.1.2.1.2.1.2.1.2.2.1.1.2.2.1.2.1.2.1.1.1.2v.3l.1.2V26l-.1.2-.1.2v.2l-.2.1-.1.2-.1.2-.2.2-.1.1-.2.1-.2.2-.2.1h-.2l-.2.1-.2.1h-.4z"/>
        <path d="M59.9 9.2V11c0 .5.4.9.9.9s.9-.4.9-.9V9.2c0-.5-.4-.9-.9-.9-.4 0-.9.4-.9.9z" fill="#8b8f90"/>
        <path fill="#8a7867" d="M61.7 9.5v1.3h-1.8V9.5h1.8z"/>
        <path fill="#8a7867" d="M61.7 9.5v1.3h-1.8V9.5h1.8z"/>
        <path fill="#8a7867" d="M61.7 9.5v1.3h-1.8V9.5h1.8z"/>
        <path fill="#8a7867" d="M61.7 9.5v1.3h-1.8V9.5h1.8z"/>
        <path d="M49.2 9.2V11c0 .5.4.9.9.9s.9-.4.9-.9V9.2c0-.5-.4-.9-.9-.9s-.9.4-.9.9z" fill="#8b8f90"/>
        <path fill="#8a7867" d="M51 9.5v1.3h-1.8V9.5H51z"/>
        <path fill="#8a7867" d="M51 9.5v1.3h-1.8V9.5H51z"/>
        <path fill="#8a7867" d="M51 9.5v1.3h-1.8V9.5H51z"/>
        <path fill="#8a7867" d="M51 9.5v1.3h-1.8V9.5H51z"/>
        <path d="M63 9.2V11c0 .5.4.9.9.9s.9-.4.9-.9V9.2c0-.5-.4-.9-.9-.9s-.9.4-.9.9z" fill="#8b8f90"/>
        <path fill="#8a7867" d="M64.8 9.5v1.3H63V9.5h1.8z"/>
        <path fill="#8a7867" d="M64.8 9.5v1.3H63V9.5h1.8z"/>
        <path fill="#8a7867" d="M64.8 9.5v1.3H63V9.5h1.8z"/>
        <path fill="#8a7867" d="M64.8 9.5v1.3H63V9.5h1.8z"/>
        <path fill="#8b8f90" d="M40.8 10.2v30H10.1v-30h30.7z"/>
        <path fill="#b8b9ba" d="M11.4 11.5h-.1v27.4h28.1V11.5h-28z"/>
        <path fill="#6c972e" d="M10.1 10.2v30H0v-30h10.1z"/>
        <path fill="#6c972e" d="M10.1 10.2v30H0v-30h10.1z"/>
        <path fill="#017481" d="m5.6 16.7 2.3-3.1H9v23.2H7.9l-2.3-3.2V16.7z"/>
        <path fill="#017481" d="m1.1 22.4 3-3.9v13.2l-3-3.9v-5.4z"/>
        <path d="M113.2 46.7c0-1.2-1-2.3-2.3-2.3-1.2 0-2.2 1-2.3 2.3v3.7h4.5v-3.7zm-3.7 0c0-.8.7-1.5 1.5-1.5s1.5.7 1.5 1.5-.7 1.5-1.5 1.5c-.8-.1-1.5-.7-1.5-1.5z" fill="#c2b9af"/>
        <path d="M111 48.1c-.8 0-1.5-.7-1.5-1.5s.7-1.5 1.5-1.5 1.5.7 1.5 1.5c0 .9-.7 1.5-1.5 1.5z" fill="#8a7867"/>
        <path d="M109.5 50.4c0-.8.7-1.5 1.5-1.5s1.5.7 1.5 1.5h-3z" fill="#ffffff"/>
        <path d="M106.1 46.7c0-1.2-1-2.3-2.3-2.2-1.2 0-2.2 1-2.2 2.2v3.7h4.5v-3.7zm-3.7 0c0-.8.7-1.5 1.5-1.5s1.5.7 1.5 1.5-.7 1.5-1.5 1.5c-.8-.1-1.5-.7-1.5-1.5z" fill="#c2b9af"/>
        <path d="M103.9 48.1c-.8 0-1.5-.7-1.5-1.5s.7-1.5 1.5-1.5 1.5.7 1.5 1.5c-.1.9-.7 1.5-1.5 1.5z" fill="#8a7867"/>
        <path d="M102.4 50.4c0-.8.7-1.5 1.5-1.5s1.5.7 1.5 1.5h-3z" fill="#ffffff"/>
        <path d="M99 46.7c0-1.2-1-2.3-2.3-2.3-1.2 0-2.2 1-2.3 2.3v3.7H99v-3.7zm-3.7 0c0-.8.7-1.5 1.5-1.5s1.5.7 1.5 1.5-.7 1.5-1.5 1.5c-.9-.1-1.5-.7-1.5-1.5z" fill="#c2b9af"/>
        <path d="M96.8 48.1c-.8 0-1.5-.7-1.5-1.5s.7-1.5 1.5-1.5 1.5.7 1.5 1.5c-.1.9-.7 1.5-1.5 1.5z" fill="#8a7867"/>
        <path d="M95.3 50.4c0-.8.7-1.5 1.5-1.5s1.5.7 1.5 1.5h-3z" fill="#ffffff"/>
        <path d="M91.9 46.7c0-1.2-1-2.3-2.3-2.3-1.2 0-2.2 1-2.3 2.3v3.7h4.5v-3.7zm-3.7 0c0-.8.7-1.5 1.5-1.5s1.5.7 1.5 1.5-.7 1.5-1.5 1.5c-.9-.1-1.5-.7-1.5-1.5z" fill="#c2b9af"/>
        <path d="M89.6 48.1c-.8 0-1.5-.7-1.5-1.5s.7-1.5 1.5-1.5 1.5.7 1.5 1.5c0 .9-.7 1.5-1.5 1.5z" fill="#8a7867"/>
        <path d="M88.2 50.4c0-.8.7-1.5 1.5-1.5s1.5.7 1.5 1.5h-3z" fill="#ffffff"/>
        <path d="M84.8 46.7c0-1.2-1-2.3-2.3-2.2-1.2 0-2.2 1-2.2 2.2v3.7h4.5v-3.7zm-3.7 0c0-.8.7-1.5 1.5-1.5s1.5.7 1.5 1.5-.7 1.5-1.5 1.5c-.9-.1-1.5-.7-1.5-1.5z" fill="#c2b9af"/>
        <path d="M82.5 48.1c-.8 0-1.5-.7-1.5-1.5s.7-1.5 1.5-1.5 1.5.7 1.5 1.5c0 .9-.7 1.5-1.5 1.5z" fill="#8a7867"/>
        <path d="M81.1 50.4c0-.8.7-1.5 1.5-1.5s1.5.7 1.5 1.5h-3z" fill="#ffffff"/>
        <path d="M77.7 46.7c0-1.2-1-2.3-2.3-2.3-1.2 0-2.2 1-2.3 2.3v3.7h4.5v-3.7zm-3.8 0c0-.8.7-1.5 1.5-1.5s1.5.7 1.5 1.5-.7 1.5-1.5 1.5c-.8-.1-1.5-.7-1.5-1.5z" fill="#c2b9af"/>
        <path d="M75.4 48.1c-.8 0-1.5-.7-1.5-1.5s.7-1.5 1.5-1.5 1.5.7 1.5 1.5c0 .9-.7 1.5-1.5 1.5z" fill="#8a7867"/>
        <path d="M73.9 50.4c0-.8.7-1.5 1.5-1.5s1.5.7 1.5 1.5h-3z" fill="#ffffff"/>
        <path d="M70.5 46.7c0-1.2-1-2.3-2.3-2.2-1.2 0-2.2 1-2.2 2.2v3.7h4.5v-3.7zm-3.7 0c0-.8.7-1.5 1.5-1.5s1.5.7 1.5 1.5-.7 1.5-1.5 1.5c-.8-.1-1.5-.7-1.5-1.5z" fill="#c2b9af"/>
        <path d="M68.3 48.1c-.8 0-1.5-.7-1.5-1.5s.7-1.5 1.5-1.5 1.5.7 1.5 1.5c0 .9-.7 1.5-1.5 1.5z" fill="#8a7867"/>
        <path d="M66.8 50.4c0-.8.7-1.5 1.5-1.5s1.5.7 1.5 1.5h-3z" fill="#ffffff"/>
        <path d="M63.4 46.7c0-1.2-1-2.3-2.3-2.3-1.2 0-2.2 1-2.3 2.3v3.7h4.5v-3.7zm-3.7 0c0-.8.7-1.5 1.5-1.5s1.5.7 1.5 1.5-.7 1.5-1.5 1.5c-.8-.1-1.5-.7-1.5-1.5z" fill="#c2b9af"/>
        <path d="M61.2 48.1c-.8 0-1.5-.7-1.5-1.5s.7-1.5 1.5-1.5 1.5.7 1.5 1.5c-.1.9-.7 1.5-1.5 1.5z" fill="#8a7867"/>
        <path d="M59.7 50.4c0-.8.7-1.5 1.5-1.5s1.5.7 1.5 1.5h-3z" fill="#ffffff"/>
        <path d="M56.3 46.7c0-1.2-1-2.3-2.3-2.2-1.2 0-2.2 1-2.2 2.2v3.7h4.5v-3.7zm-3.7 0c0-.8.7-1.5 1.5-1.5s1.5.7 1.5 1.5-.7 1.5-1.5 1.5c-.9-.1-1.5-.7-1.5-1.5z" fill="#c2b9af"/>
        <path d="M54.1 48.1c-.8 0-1.5-.7-1.5-1.5s.7-1.5 1.5-1.5 1.5.7 1.5 1.5c-.1.9-.7 1.5-1.5 1.5z" fill="#8a7867"/>
        <path d="M52.6 50.4c0-.8.7-1.5 1.5-1.5s1.5.7 1.5 1.5h-3z" fill="#ffffff"/>
        <path d="M49.2 46.7c0-1.2-1-2.3-2.3-2.3-1.2 0-2.2 1-2.3 2.3v3.7h4.5v-3.7zm-3.7 0c0-.8.7-1.5 1.5-1.5s1.5.7 1.5 1.5-.7 1.5-1.5 1.5c-.9-.1-1.5-.7-1.5-1.5z" fill="#c2b9af"/>
        <path d="M46.9 48.1c-.8 0-1.5-.7-1.5-1.5s.7-1.5 1.5-1.5 1.5.7 1.5 1.5c0 .9-.6 1.5-1.5 1.5z" fill="#8a7867"/>
        <path d="M45.5 50.4c0-.8.7-1.5 1.5-1.5s1.5.7 1.5 1.5h-3z" fill="#ffffff"/>
        <path d="M42.1 46.7c0-1.2-1-2.3-2.3-2.3-1.2 0-2.2 1-2.3 2.3v3.7H42v-3.7zm-3.7 0c0-.8.7-1.5 1.5-1.5s1.5.7 1.5 1.5-.7 1.5-1.5 1.5c-.9-.1-1.5-.7-1.5-1.5z" fill="#c2b9af"/>
        <path d="M39.8 48.1c-.8 0-1.5-.7-1.5-1.5s.7-1.5 1.5-1.5 1.5.7 1.5 1.5c0 .9-.7 1.5-1.5 1.5z" fill="#8a7867"/>
        <path d="M38.4 50.4c0-.8.7-1.5 1.5-1.5s1.5.7 1.5 1.5h-3z" fill="#ffffff"/>
        <path d="M35 46.7c0-1.2-1-2.3-2.3-2.2-1.2 0-2.2 1-2.2 2.2v3.7H35v-3.7zm-3.8 0c0-.8.7-1.5 1.5-1.5s1.5.7 1.5 1.5-.7 1.5-1.5 1.5c-.8-.1-1.5-.7-1.5-1.5z" fill="#c2b9af"/>
        <path d="M32.7 48.1c-.8 0-1.5-.7-1.5-1.5s.7-1.5 1.5-1.5 1.5.7 1.5 1.5c0 .9-.7 1.5-1.5 1.5z" fill="#8a7867"/>
        <path d="M31.2 50.4c0-.8.7-1.5 1.5-1.5s1.5.7 1.5 1.5h-3z" fill="#ffffff"/>
        <path d="M27.8 46.7c0-1.2-1-2.3-2.3-2.3-1.2 0-2.2 1-2.3 2.3v3.7h4.5v-3.7zm-3.7 0c0-.8.7-1.5 1.5-1.5s1.5.7 1.5 1.5-.7 1.5-1.5 1.5c-.8-.1-1.5-.7-1.5-1.5z" fill="#c2b9af"/>
        <path d="M25.6 48.1c-.8 0-1.5-.7-1.5-1.5s.7-1.5 1.5-1.5 1.5.7 1.5 1.5c0 .9-.7 1.5-1.5 1.5z" fill="#8a7867"/>
        <path d="M24.1 50.4c0-.8.7-1.5 1.5-1.5s1.5.7 1.5 1.5h-3z" fill="#ffffff"/>
        <path d="M20.7 46.7c0-1.2-1-2.3-2.3-2.2-1.2 0-2.2 1-2.2 2.2v3.7h4.5v-3.7zm-3.7 0c0-.8.7-1.5 1.5-1.5s1.5.7 1.5 1.5-.7 1.5-1.5 1.5c-.8-.1-1.5-.7-1.5-1.5z" fill="#c2b9af"/>
        <path d="M18.5 48.1c-.8 0-1.5-.7-1.5-1.5s.7-1.5 1.5-1.5 1.5.7 1.5 1.5c-.1.9-.7 1.5-1.5 1.5z" fill="#8a7867"/>
        <path d="M17 50.4c0-.8.7-1.5 1.5-1.5s1.5.7 1.5 1.5h-3z" fill="#ffffff"/>
        <path d="M13.6 46.7c0-1.2-1-2.3-2.3-2.3-1.2 0-2.2 1-2.3 2.3v3.7h4.5v-3.7zm-3.7 0c0-.8.7-1.5 1.5-1.5s1.5.7 1.5 1.5-.7 1.5-1.5 1.5c-.8-.1-1.5-.7-1.5-1.5z" fill="#c2b9af"/>
        <path d="M11.4 48.1c-.8 0-1.5-.7-1.5-1.5s.7-1.5 1.5-1.5 1.5.7 1.5 1.5c-.1.9-.7 1.5-1.5 1.5z" fill="#8a7867"/>
        <path d="M9.9 50.4c0-.8.7-1.5 1.5-1.5s1.5.7 1.5 1.5h-3z" fill="#ffffff"/>
        <path d="M13.6 3.7V0H9.1v3.7c0 1.2 1 2.3 2.3 2.3 1.2-.1 2.2-1.1 2.2-2.3zm-3.7 0c0-.8.7-1.5 1.5-1.5s1.5.7 1.5 1.5-.7 1.5-1.5 1.5c-.9 0-1.5-.7-1.5-1.5z" fill="#c2b9af"/>
        <path d="M11.4 5.2c-.8 0-1.5-.7-1.5-1.5s.7-1.5 1.5-1.5 1.5.7 1.5 1.5c-.1.8-.7 1.5-1.5 1.5z" fill="#8a7867"/>
        <path d="M12.8 0c0 .8-.7 1.5-1.5 1.5S9.9.8 9.9 0h2.9z" fill="#ffffff"/>
        <path d="M20.7 3.7V0h-4.5v3.7c0 1.2 1 2.3 2.3 2.2 1.2 0 2.2-1 2.2-2.2zm-3.7 0c0-.8.7-1.5 1.5-1.5s1.5.7 1.5 1.5-.7 1.5-1.5 1.5S17 4.5 17 3.7z" fill="#c2b9af"/>
        <path d="M18.5 5.2c-.8 0-1.5-.7-1.5-1.5s.7-1.5 1.5-1.5 1.5.7 1.5 1.5c-.1.8-.7 1.5-1.5 1.5z" fill="#8a7867"/>
        <path d="M19.9 0c0 .8-.7 1.5-1.5 1.5S17 .8 17 0h2.9z" fill="#ffffff"/>
        <path d="M27.8 3.7V0h-4.5v3.7c0 1.2 1 2.3 2.3 2.3 1.2-.1 2.2-1.1 2.2-2.3zm-3.7 0c0-.8.7-1.5 1.5-1.5s1.5.7 1.5 1.5-.7 1.5-1.5 1.5-1.5-.7-1.5-1.5z" fill="#c2b9af"/>
        <path d="M25.6 5.2c-.8 0-1.5-.7-1.5-1.5s.7-1.5 1.5-1.5 1.5.7 1.5 1.5-.7 1.5-1.5 1.5z" fill="#8a7867"/>
        <path d="M27.1 0c0 .8-.7 1.5-1.5 1.5S24.1.8 24.1 0h3z" fill="#ffffff"/>
        <path d="M35 3.7V0h-4.5v3.7c0 1.2 1 2.3 2.3 2.2 1.2 0 2.2-1 2.2-2.2zm-3.8 0c0-.8.7-1.5 1.5-1.5s1.5.7 1.5 1.5-.7 1.5-1.5 1.5-1.5-.7-1.5-1.5z" fill="#c2b9af"/>
        <path d="M32.7 5.2c-.8 0-1.5-.7-1.5-1.5s.7-1.5 1.5-1.5 1.5.7 1.5 1.5-.7 1.5-1.5 1.5z" fill="#8a7867"/>
        <path d="M34.2 0c0 .8-.7 1.5-1.5 1.5S31.2.8 31.2 0h3z" fill="#ffffff"/>
        <path d="M42.1 3.7V0h-4.5v3.7c0 1.2 1 2.3 2.3 2.3 1.2-.1 2.2-1.1 2.2-2.3zm-3.8 0c0-.8.7-1.5 1.5-1.5s1.5.7 1.5 1.5-.7 1.5-1.5 1.5-1.4-.7-1.5-1.5z" fill="#c2b9af"/>
        <path d="M39.8 5.2c-.8 0-1.5-.7-1.5-1.5s.7-1.5 1.5-1.5 1.5.7 1.5 1.5-.7 1.5-1.5 1.5z" fill="#8a7867"/>
        <path d="M41.3 0c0 .8-.7 1.5-1.5 1.5S38.3.8 38.3 0h3z" fill="#ffffff"/>
        <path d="M49.2 3.7V0h-4.5v3.7c0 1.2 1 2.3 2.3 2.3 1.2-.1 2.2-1.1 2.2-2.3zm-3.7 0c0-.8.7-1.5 1.5-1.5s1.5.7 1.5 1.5-.7 1.5-1.5 1.5c-.9 0-1.5-.7-1.5-1.5z" fill="#c2b9af"/>
        <path d="M46.9 5.2c-.8 0-1.5-.7-1.5-1.5s.7-1.5 1.5-1.5 1.5.7 1.5 1.5-.6 1.5-1.5 1.5z" fill="#8a7867"/>
        <path d="M48.4 0c0 .8-.7 1.5-1.5 1.5S45.5.8 45.5 0h2.9z" fill="#ffffff"/>
        <path d="M56.3 3.7V0h-4.5v3.7c0 1.2 1 2.3 2.3 2.2 1.2 0 2.2-1 2.2-2.2zm-3.7 0c0-.8.7-1.5 1.5-1.5s1.5.7 1.5 1.5-.7 1.5-1.5 1.5c-.9 0-1.5-.7-1.5-1.5z" fill="#c2b9af"/>
        <path d="M54.1 5.2c-.8 0-1.5-.7-1.5-1.5s.7-1.5 1.5-1.5 1.5.7 1.5 1.5c-.1.8-.7 1.5-1.5 1.5z" fill="#8a7867"/>
        <path d="M55.5 0c0 .8-.7 1.5-1.5 1.5S52.6.8 52.6 0h2.9z" fill="#ffffff"/>
        <path d="M63.4 3.7V0h-4.5v3.7c0 1.2 1 2.3 2.3 2.3 1.2-.1 2.2-1.1 2.2-2.3zm-3.7 0c0-.8.7-1.5 1.5-1.5s1.5.7 1.5 1.5-.7 1.5-1.5 1.5-1.5-.7-1.5-1.5z" fill="#c2b9af"/>
        <path d="M61.2 5.2c-.8 0-1.5-.7-1.5-1.5s.7-1.5 1.5-1.5 1.5.7 1.5 1.5c-.1.8-.7 1.5-1.5 1.5z" fill="#8a7867"/>
        <path d="M62.6 0c0 .8-.7 1.5-1.5 1.5S59.7.8 59.7 0h2.9z" fill="#ffffff"/>
        <path d="M70.5 3.7V0H66v3.7c0 1.2 1 2.3 2.3 2.2 1.2 0 2.2-1 2.2-2.2zm-3.7 0c0-.8.7-1.5 1.5-1.5s1.5.7 1.5 1.5-.7 1.5-1.5 1.5-1.5-.7-1.5-1.5z" fill="#c2b9af"/>
        <path d="M68.3 5.2c-.8 0-1.5-.7-1.5-1.5s.7-1.5 1.5-1.5 1.5.7 1.5 1.5-.7 1.5-1.5 1.5z" fill="#8a7867"/>
        <path d="M69.8 0c0 .8-.7 1.5-1.5 1.5S66.8.8 66.8 0h3z" fill="#ffffff"/>
        <path d="M77.7 3.7V0h-4.5v3.7c0 1.2 1 2.3 2.3 2.3 1.1-.1 2.2-1.1 2.2-2.3zm-3.8 0c0-.8.7-1.5 1.5-1.5s1.5.7 1.5 1.5-.7 1.5-1.5 1.5-1.5-.7-1.5-1.5z" fill="#c2b9af"/>
        <path d="M75.4 5.2c-.8 0-1.5-.7-1.5-1.5s.7-1.5 1.5-1.5 1.5.7 1.5 1.5-.7 1.5-1.5 1.5z" fill="#8a7867"/>
        <path d="M76.9 0c0 .8-.7 1.5-1.5 1.5S73.9.8 73.9 0h3z" fill="#ffffff"/>
        <path d="M84.8 3.7V0h-4.5v3.7c0 1.2 1 2.3 2.3 2.2 1.2 0 2.2-1 2.2-2.2zm-3.8 0c0-.8.7-1.5 1.5-1.5s1.5.7 1.5 1.5-.7 1.5-1.5 1.5S81 4.5 81 3.7z" fill="#c2b9af"/>
        <path d="M82.5 5.2c-.8 0-1.5-.7-1.5-1.5s.7-1.5 1.5-1.5 1.5.7 1.5 1.5-.7 1.5-1.5 1.5z" fill="#8a7867"/>
        <path d="M84 0c0 .8-.7 1.5-1.5 1.5S81 .8 81 0h3z" fill="#ffffff"/>
        <path d="M91.9 3.7V0h-4.5v3.7c0 1.2 1 2.3 2.3 2.3 1.2-.1 2.2-1.1 2.2-2.3zm-3.7 0c0-.8.7-1.5 1.5-1.5s1.5.7 1.5 1.5-.7 1.5-1.5 1.5c-.9 0-1.5-.7-1.5-1.5z" fill="#c2b9af"/>
        <path d="M89.6 5.2c-.8 0-1.5-.7-1.5-1.5s.7-1.5 1.5-1.5 1.5.7 1.5 1.5-.7 1.5-1.5 1.5z" fill="#8a7867"/>
        <path d="M91.1 0c0 .8-.7 1.5-1.5 1.5S88.2.8 88.2 0h2.9z" fill="#ffffff"/>
        <path d="M99 3.7V0h-4.5v3.7c0 1.2 1 2.3 2.3 2.3C98 5.9 99 4.9 99 3.7zm-3.7 0c0-.8.7-1.5 1.5-1.5s1.5.7 1.5 1.5-.7 1.5-1.5 1.5c-.9 0-1.5-.7-1.5-1.5z" fill="#c2b9af"/>
        <path d="M96.7 5.2c-.8 0-1.5-.7-1.5-1.5s.7-1.5 1.5-1.5 1.5.7 1.5 1.5-.6 1.5-1.5 1.5z" fill="#8a7867"/>
        <path d="M98.2 0c0 .8-.7 1.5-1.5 1.5S95.3.8 95.3 0h2.9z" fill="#ffffff"/>
        <path d="M106.1 3.7V0h-4.5v3.7c0 1.2 1 2.3 2.3 2.2 1.2 0 2.2-1 2.2-2.2zm-3.7 0c0-.8.7-1.5 1.5-1.5s1.5.7 1.5 1.5-.7 1.5-1.5 1.5-1.5-.7-1.5-1.5z" fill="#c2b9af"/>
        <path d="M103.9 5.2c-.8 0-1.5-.7-1.5-1.5s.7-1.5 1.5-1.5 1.5.7 1.5 1.5c-.1.8-.7 1.5-1.5 1.5z" fill="#8a7867"/>
        <path d="M105.3 0c0 .8-.7 1.5-1.5 1.5s-1.5-.7-1.5-1.5h3z" fill="#ffffff"/>
        <path d="M113.2 3.7V0h-4.5v3.7c0 1.2 1 2.3 2.3 2.3 1.2-.1 2.2-1.1 2.2-2.3zm-3.7 0c0-.8.7-1.5 1.5-1.5s1.5.7 1.5 1.5-.7 1.5-1.5 1.5-1.5-.7-1.5-1.5z" fill="#c2b9af"/>
        <path d="M111 5.2c-.8 0-1.5-.7-1.5-1.5s.7-1.5 1.5-1.5 1.5.7 1.5 1.5c-.1.8-.7 1.5-1.5 1.5z" fill="#8a7867"/>
        <path d="M112.4 0c0 .8-.7 1.5-1.5 1.5s-1.5-.7-1.5-1.5h3z" fill="#ffffff"/>
        <path d="M48.6 35v2h-2v-2h2z" fill="#81b8bd"/>
        <path d="M45.8 35v2h-2v-2h2z" fill="#81b8bd"/>
        <path d="M48.6 32.3v2h-2v-2h2c0-.1 0 0 0 0z" fill="#81b8bd"/>
        <path d="M45.8 32.3v2h-2v-2h2c0-.1 0 0 0 0z" fill="#81b8bd"/>
        <path fill="#8b7866" d="M47.9 33v3.2h-3.3V33h3.3z"/>
        <path d="M44.8 33.3c0-.1.1-.2.1-.2h2.6c.1 0 .1.1.1.2V36c0 .1-.1.2-.1.2h-2.6c-.1 0-.1-.1-.1-.2v-2.7z" fill="#8c9091"/>
        <path fill="#9fa1a2" d="M44.8 33v3.2h-.2V33h.2z"/>
        <path fill="#9fa1a2" d="M47.9 33v3.2h-.2V33h.2z"/>
        <path d="M45 34.6c0-.7.5-1.2 1.2-1.2s1.2.5 1.2 1.2-.5 1.2-1.2 1.2c-.7.1-1.2-.5-1.2-1.2z" fill="#ffffff"/>
    </g>
</svg>
